<svg width="184" height="34" viewBox="0 0 184 34" fill="none" xmlns="http://www.w3.org/2000/svg">
<path d="M48.06 21.88C48.5733 21.88 49.05 21.7934 49.49 21.62C49.9367 21.4467 50.3533 21.2267 50.74 20.96L51.66 22.21C51.2 22.6034 50.6433 22.9167 49.99 23.15C49.3367 23.3834 48.6833 23.5 48.03 23.5C46.97 23.5 46.0633 23.2734 45.31 22.82C44.5633 22.3667 43.9933 21.73 43.6 20.91C43.2067 20.09 43.01 19.13 43.01 18.03C43.01 16.9634 43.2067 16.01 43.6 15.17C44 14.33 44.5767 13.67 45.33 13.19C46.0833 12.7034 46.9933 12.46 48.06 12.46C48.7533 12.46 49.3967 12.5667 49.99 12.78C50.59 12.9867 51.14 13.2934 51.64 13.7L50.73 14.95C50.2967 14.65 49.86 14.4234 49.42 14.27C48.98 14.11 48.53 14.03 48.07 14.03C47.19 14.03 46.47 14.3567 45.91 15.01C45.35 15.6634 45.07 16.67 45.07 18.03C45.07 18.9367 45.1967 19.6734 45.45 20.24C45.71 20.8067 46.0667 21.2234 46.52 21.49C46.9733 21.75 47.4867 21.88 48.06 21.88Z" fill="white"/>
<path d="M57.0722 8.28004V14.08C57.4922 13.54 57.9955 13.1367 58.5822 12.87C59.1755 12.5967 59.7789 12.46 60.3922 12.46C61.4055 12.46 62.1522 12.7367 62.6322 13.29C63.1122 13.8367 63.3522 14.6 63.3522 15.58V23.25H61.4322V15.75C61.4322 15.1167 61.2955 14.66 61.0222 14.38C60.7555 14.0934 60.3289 13.95 59.7422 13.95C59.3689 13.95 59.0122 14.0334 58.6722 14.2C58.3389 14.3667 58.0355 14.58 57.7622 14.84C57.4889 15.0934 57.2589 15.3567 57.0722 15.63V23.25H55.1522V8.49004L57.0722 8.28004Z" fill="white"/>
<path d="M74.9144 20.83C74.9144 21.25 74.9811 21.5567 75.1144 21.75C75.2477 21.9367 75.4577 22.0767 75.7444 22.17L75.2944 23.49C74.8144 23.43 74.3977 23.2867 74.0444 23.06C73.6911 22.8334 73.4277 22.4867 73.2544 22.02C72.8744 22.5067 72.3944 22.8767 71.8144 23.13C71.2344 23.3767 70.6044 23.5 69.9244 23.5C68.8644 23.5 68.0277 23.2 67.4144 22.6C66.8011 22 66.4944 21.21 66.4944 20.23C66.4944 19.13 66.9211 18.2867 67.7744 17.7C68.6344 17.1134 69.8677 16.82 71.4744 16.82H73.0044V16.02C73.0044 15.2934 72.7877 14.7767 72.3544 14.47C71.9277 14.1634 71.3311 14.01 70.5644 14.01C70.2177 14.01 69.8044 14.0534 69.3244 14.14C68.8444 14.2267 68.3344 14.3634 67.7944 14.55L67.3044 13.15C67.9577 12.9034 68.5811 12.7267 69.1744 12.62C69.7744 12.5134 70.3344 12.46 70.8544 12.46C72.2144 12.46 73.2311 12.77 73.9044 13.39C74.5777 14.0034 74.9144 14.8467 74.9144 15.92V20.83ZM70.4644 22.06C70.9577 22.06 71.4311 21.9334 71.8844 21.68C72.3377 21.4267 72.7111 21.0734 73.0044 20.62V18.07H71.6044C70.4911 18.07 69.7011 18.26 69.2344 18.64C68.7677 19.0134 68.5344 19.5267 68.5344 20.18C68.5344 20.7934 68.6944 21.26 69.0144 21.58C69.3344 21.9 69.8177 22.06 70.4644 22.06Z" fill="white"/>
<path d="M84.6566 12.71V21.79H87.5866V23.25H79.5266V21.79H82.7366V14.17H79.6266V12.71H84.6566ZM83.2266 7.67004C83.6266 7.67004 83.9466 7.79338 84.1866 8.04004C84.4332 8.28671 84.5566 8.58671 84.5566 8.94004C84.5566 9.30671 84.4332 9.61671 84.1866 9.87004C83.9466 10.1167 83.6266 10.24 83.2266 10.24C82.8332 10.24 82.5132 10.1167 82.2666 9.87004C82.0266 9.61671 81.9066 9.30671 81.9066 8.94004C81.9066 8.58671 82.0266 8.28671 82.2666 8.04004C82.5132 7.79338 82.8332 7.67004 83.2266 7.67004Z" fill="white"/>
<path d="M91.1288 23.25V12.71H92.7788L92.9188 14.13C93.3521 13.59 93.8788 13.1767 94.4988 12.89C95.1254 12.6034 95.7488 12.46 96.3688 12.46C97.3821 12.46 98.1288 12.7367 98.6088 13.29C99.0888 13.8367 99.3288 14.6 99.3288 15.58V23.25H97.4088V16.76C97.4088 16.0934 97.3688 15.5534 97.2888 15.14C97.2154 14.72 97.0588 14.4167 96.8188 14.23C96.5788 14.0434 96.2154 13.95 95.7288 13.95C95.3488 13.95 94.9888 14.0334 94.6488 14.2C94.3088 14.3667 94.0021 14.5767 93.7288 14.83C93.4621 15.0834 93.2354 15.3467 93.0488 15.62V23.25H91.1288Z" fill="white"/>
<path d="M109.771 19.82H104.551L103.511 23.25H101.521L105.961 9.47004H108.461L112.911 23.25H110.811L109.771 19.82ZM105.011 18.23H109.311L107.171 11.07L105.011 18.23Z" fill="white"/>
<path d="M117.033 12.71V20.13C117.033 20.7967 117.17 21.2767 117.443 21.57C117.716 21.8567 118.133 22 118.693 22C119.233 22 119.746 21.8434 120.233 21.53C120.72 21.2167 121.1 20.8434 121.373 20.41V12.71H123.293V23.25H121.643L121.503 21.86C121.103 22.3867 120.6 22.7934 119.993 23.08C119.386 23.36 118.773 23.5 118.153 23.5C117.133 23.5 116.37 23.2234 115.863 22.67C115.363 22.1167 115.113 21.35 115.113 20.37V12.71H117.033Z" fill="white"/>
<path d="M132.005 21.88C132.519 21.88 132.995 21.7934 133.435 21.62C133.882 21.4467 134.299 21.2267 134.685 20.96L135.605 22.21C135.145 22.6034 134.589 22.9167 133.935 23.15C133.282 23.3834 132.629 23.5 131.975 23.5C130.915 23.5 130.009 23.2734 129.255 22.82C128.509 22.3667 127.939 21.73 127.545 20.91C127.152 20.09 126.955 19.13 126.955 18.03C126.955 16.9634 127.152 16.01 127.545 15.17C127.945 14.33 128.522 13.67 129.275 13.19C130.029 12.7034 130.939 12.46 132.005 12.46C132.699 12.46 133.342 12.5667 133.935 12.78C134.535 12.9867 135.085 13.2934 135.585 13.7L134.675 14.95C134.242 14.65 133.805 14.4234 133.365 14.27C132.925 14.11 132.475 14.03 132.015 14.03C131.135 14.03 130.415 14.3567 129.855 15.01C129.295 15.6634 129.015 16.67 129.015 18.03C129.015 18.9367 129.142 19.6734 129.395 20.24C129.655 20.8067 130.012 21.2234 130.465 21.49C130.919 21.75 131.432 21.88 132.005 21.88Z" fill="white"/>
<path d="M147.658 22.71C147.284 22.95 146.834 23.14 146.308 23.28C145.781 23.4267 145.254 23.5 144.728 23.5C143.554 23.5 142.654 23.1934 142.028 22.58C141.408 21.9667 141.098 21.17 141.098 20.19V14.15H138.708V12.71H141.098V10.33L143.018 10.1V12.71H146.618L146.398 14.15H143.018V20.17C143.018 20.75 143.164 21.1867 143.458 21.48C143.758 21.7734 144.254 21.92 144.948 21.92C145.341 21.92 145.701 21.8734 146.028 21.78C146.354 21.6867 146.658 21.5667 146.938 21.42L147.658 22.71Z" fill="white"/>
<path d="M156.61 12.71V21.79H159.54V23.25H151.48V21.79H154.69V14.17H151.58V12.71H156.61ZM155.18 7.67004C155.58 7.67004 155.9 7.79338 156.14 8.04004C156.386 8.28671 156.51 8.58671 156.51 8.94004C156.51 9.30671 156.386 9.61671 156.14 9.87004C155.9 10.1167 155.58 10.24 155.18 10.24C154.786 10.24 154.466 10.1167 154.22 9.87004C153.98 9.61671 153.86 9.30671 153.86 8.94004C153.86 8.58671 153.98 8.28671 154.22 8.04004C154.466 7.79338 154.786 7.67004 155.18 7.67004Z" fill="white"/>
<path d="M167.192 12.46C168.199 12.46 169.042 12.6867 169.722 13.14C170.409 13.5934 170.925 14.2334 171.272 15.06C171.625 15.88 171.802 16.85 171.802 17.97C171.802 19.0567 171.622 20.0167 171.262 20.85C170.909 21.6767 170.389 22.3267 169.702 22.8C169.015 23.2667 168.172 23.5 167.172 23.5C166.172 23.5 165.325 23.2734 164.632 22.82C163.945 22.3667 163.425 21.7267 163.072 20.9C162.719 20.0734 162.542 19.1034 162.542 17.99C162.542 16.8967 162.719 15.9367 163.072 15.11C163.432 14.2767 163.959 13.6267 164.652 13.16C165.345 12.6934 166.192 12.46 167.192 12.46ZM167.192 13.99C166.325 13.99 165.672 14.3167 165.232 14.97C164.792 15.6167 164.572 16.6234 164.572 17.99C164.572 19.3434 164.789 20.3467 165.222 21C165.655 21.6467 166.305 21.97 167.172 21.97C168.039 21.97 168.689 21.6467 169.122 21C169.555 20.3467 169.772 19.3367 169.772 17.97C169.772 16.61 169.555 15.6067 169.122 14.96C168.695 14.3134 168.052 13.99 167.192 13.99Z" fill="white"/>
<path d="M175.074 23.25V12.71H176.724L176.864 14.13C177.297 13.59 177.824 13.1767 178.444 12.89C179.071 12.6034 179.694 12.46 180.314 12.46C181.327 12.46 182.074 12.7367 182.554 13.29C183.034 13.8367 183.274 14.6 183.274 15.58V23.25H181.354V16.76C181.354 16.0934 181.314 15.5534 181.234 15.14C181.161 14.72 181.004 14.4167 180.764 14.23C180.524 14.0434 180.161 13.95 179.674 13.95C179.294 13.95 178.934 14.0334 178.594 14.2C178.254 14.3667 177.947 14.5767 177.674 14.83C177.407 15.0834 177.181 15.3467 176.994 15.62V23.25H175.074Z" fill="white"/>
<path fill-rule="evenodd" clip-rule="evenodd" d="M14.9328 0.172527C15.3197 -0.0550162 15.7989 -0.0576505 16.1883 0.165625L30.8718 8.58538C31.2604 8.80818 31.5 9.22185 31.5 9.66975V23.4475C31.5 23.8868 31.2694 24.2938 30.8927 24.5196L16.2092 33.3221C15.8167 33.5574 15.3272 33.5594 14.9328 33.3275L0.616319 24.9077C0.234468 24.6831 0 24.2732 0 23.8302V10.4352H0.261747C0.0947001 10.2195 0 9.95129 0 9.66975C0 9.22676 0.234468 8.81685 0.616319 8.59228L14.9328 0.172527ZM2.5 11.8551V23.1152L14.3165 30.0647V18.8045L2.5 11.8551ZM16.8165 18.8137V30.0433L29 22.7395V11.8274L16.8165 18.8137ZM27.7371 9.66975L15.5744 16.644L3.71575 9.66975L15.5744 2.69548L27.7371 9.66975Z" fill="white"/>
</svg>
