<svg width="184" height="34" viewBox="0 0 184 34" fill="none" xmlns="http://www.w3.org/2000/svg">
    <path
        d="M48.06 22.13C48.5733 22.13 49.05 22.0434 49.49 21.87C49.9367 21.6967 50.3533 21.4767 50.74 21.21L51.66 22.46C51.2 22.8534 50.6433 23.1667 49.99 23.4C49.3367 23.6334 48.6833 23.75 48.03 23.75C46.97 23.75 46.0633 23.5234 45.31 23.07C44.5633 22.6167 43.9933 21.98 43.6 21.16C43.2067 20.34 43.01 19.38 43.01 18.28C43.01 17.2134 43.2067 16.26 43.6 15.42C44 14.58 44.5767 13.92 45.33 13.44C46.0833 12.9534 46.9933 12.71 48.06 12.71C48.7533 12.71 49.3967 12.8167 49.99 13.03C50.59 13.2367 51.14 13.5434 51.64 13.95L50.73 15.2C50.2967 14.9 49.86 14.6734 49.42 14.52C48.98 14.36 48.53 14.28 48.07 14.28C47.19 14.28 46.47 14.6067 45.91 15.26C45.35 15.9134 45.07 16.92 45.07 18.28C45.07 19.1867 45.1967 19.9234 45.45 20.49C45.71 21.0567 46.0667 21.4734 46.52 21.74C46.9733 22 47.4867 22.13 48.06 22.13Z"
        fill="#001A33" />
    <path
        d="M57.0722 8.53004V14.33C57.4922 13.79 57.9955 13.3867 58.5822 13.12C59.1755 12.8467 59.7789 12.71 60.3922 12.71C61.4055 12.71 62.1522 12.9867 62.6322 13.54C63.1122 14.0867 63.3522 14.85 63.3522 15.83V23.5H61.4322V16C61.4322 15.3667 61.2955 14.91 61.0222 14.63C60.7555 14.3434 60.3289 14.2 59.7422 14.2C59.3689 14.2 59.0122 14.2834 58.6722 14.45C58.3389 14.6167 58.0355 14.83 57.7622 15.09C57.4889 15.3434 57.2589 15.6067 57.0722 15.88V23.5H55.1522V8.74004L57.0722 8.53004Z"
        fill="#001A33" />
    <path
        d="M74.9144 21.08C74.9144 21.5 74.9811 21.8067 75.1144 22C75.2477 22.1867 75.4577 22.3267 75.7444 22.42L75.2944 23.74C74.8144 23.68 74.3977 23.5367 74.0444 23.31C73.6911 23.0834 73.4277 22.7367 73.2544 22.27C72.8744 22.7567 72.3944 23.1267 71.8144 23.38C71.2344 23.6267 70.6044 23.75 69.9244 23.75C68.8644 23.75 68.0277 23.45 67.4144 22.85C66.8011 22.25 66.4944 21.46 66.4944 20.48C66.4944 19.38 66.9211 18.5367 67.7744 17.95C68.6344 17.3634 69.8677 17.07 71.4744 17.07H73.0044V16.27C73.0044 15.5434 72.7877 15.0267 72.3544 14.72C71.9277 14.4134 71.3311 14.26 70.5644 14.26C70.2177 14.26 69.8044 14.3034 69.3244 14.39C68.8444 14.4767 68.3344 14.6134 67.7944 14.8L67.3044 13.4C67.9577 13.1534 68.5811 12.9767 69.1744 12.87C69.7744 12.7634 70.3344 12.71 70.8544 12.71C72.2144 12.71 73.2311 13.02 73.9044 13.64C74.5777 14.2534 74.9144 15.0967 74.9144 16.17V21.08ZM70.4644 22.31C70.9577 22.31 71.4311 22.1834 71.8844 21.93C72.3377 21.6767 72.7111 21.3234 73.0044 20.87V18.32H71.6044C70.4911 18.32 69.7011 18.51 69.2344 18.89C68.7677 19.2634 68.5344 19.7767 68.5344 20.43C68.5344 21.0434 68.6944 21.51 69.0144 21.83C69.3344 22.15 69.8177 22.31 70.4644 22.31Z"
        fill="#001A33" />
    <path
        d="M84.6566 12.96V22.04H87.5866V23.5H79.5266V22.04H82.7366V14.42H79.6266V12.96H84.6566ZM83.2266 7.92004C83.6266 7.92004 83.9466 8.04338 84.1866 8.29004C84.4332 8.53671 84.5566 8.83671 84.5566 9.19004C84.5566 9.55671 84.4332 9.86671 84.1866 10.12C83.9466 10.3667 83.6266 10.49 83.2266 10.49C82.8332 10.49 82.5132 10.3667 82.2666 10.12C82.0266 9.86671 81.9066 9.55671 81.9066 9.19004C81.9066 8.83671 82.0266 8.53671 82.2666 8.29004C82.5132 8.04338 82.8332 7.92004 83.2266 7.92004Z"
        fill="#001A33" />
    <path
        d="M91.1288 23.5V12.96H92.7788L92.9188 14.38C93.3521 13.84 93.8788 13.4267 94.4988 13.14C95.1254 12.8534 95.7488 12.71 96.3688 12.71C97.3821 12.71 98.1288 12.9867 98.6088 13.54C99.0888 14.0867 99.3288 14.85 99.3288 15.83V23.5H97.4088V17.01C97.4088 16.3434 97.3688 15.8034 97.2888 15.39C97.2154 14.97 97.0588 14.6667 96.8188 14.48C96.5788 14.2934 96.2154 14.2 95.7288 14.2C95.3488 14.2 94.9888 14.2834 94.6488 14.45C94.3088 14.6167 94.0021 14.8267 93.7288 15.08C93.4621 15.3334 93.2354 15.5967 93.0488 15.87V23.5H91.1288Z"
        fill="#001A33" />
    <path
        d="M109.771 20.07H104.551L103.511 23.5H101.521L105.961 9.72004H108.461L112.911 23.5H110.811L109.771 20.07ZM105.011 18.48H109.311L107.171 11.32L105.011 18.48Z"
        fill="#001A33" />
    <path
        d="M117.033 12.96V20.38C117.033 21.0467 117.17 21.5267 117.443 21.82C117.716 22.1067 118.133 22.25 118.693 22.25C119.233 22.25 119.746 22.0934 120.233 21.78C120.72 21.4667 121.1 21.0934 121.373 20.66V12.96H123.293V23.5H121.643L121.503 22.11C121.103 22.6367 120.6 23.0434 119.993 23.33C119.386 23.61 118.773 23.75 118.153 23.75C117.133 23.75 116.37 23.4734 115.863 22.92C115.363 22.3667 115.113 21.6 115.113 20.62V12.96H117.033Z"
        fill="#001A33" />
    <path
        d="M132.005 22.13C132.519 22.13 132.995 22.0434 133.435 21.87C133.882 21.6967 134.299 21.4767 134.685 21.21L135.605 22.46C135.145 22.8534 134.589 23.1667 133.935 23.4C133.282 23.6334 132.629 23.75 131.975 23.75C130.915 23.75 130.009 23.5234 129.255 23.07C128.509 22.6167 127.939 21.98 127.545 21.16C127.152 20.34 126.955 19.38 126.955 18.28C126.955 17.2134 127.152 16.26 127.545 15.42C127.945 14.58 128.522 13.92 129.275 13.44C130.029 12.9534 130.939 12.71 132.005 12.71C132.699 12.71 133.342 12.8167 133.935 13.03C134.535 13.2367 135.085 13.5434 135.585 13.95L134.675 15.2C134.242 14.9 133.805 14.6734 133.365 14.52C132.925 14.36 132.475 14.28 132.015 14.28C131.135 14.28 130.415 14.6067 129.855 15.26C129.295 15.9134 129.015 16.92 129.015 18.28C129.015 19.1867 129.142 19.9234 129.395 20.49C129.655 21.0567 130.012 21.4734 130.465 21.74C130.919 22 131.432 22.13 132.005 22.13Z"
        fill="#001A33" />
    <path
        d="M147.658 22.96C147.284 23.2 146.834 23.39 146.308 23.53C145.781 23.6767 145.254 23.75 144.728 23.75C143.554 23.75 142.654 23.4434 142.028 22.83C141.408 22.2167 141.098 21.42 141.098 20.44V14.4H138.708V12.96H141.098V10.58L143.018 10.35V12.96H146.618L146.398 14.4H143.018V20.42C143.018 21 143.164 21.4367 143.458 21.73C143.758 22.0234 144.254 22.17 144.948 22.17C145.341 22.17 145.701 22.1234 146.028 22.03C146.354 21.9367 146.658 21.8167 146.938 21.67L147.658 22.96Z"
        fill="#001A33" />
    <path
        d="M156.61 12.96V22.04H159.54V23.5H151.48V22.04H154.69V14.42H151.58V12.96H156.61ZM155.18 7.92004C155.58 7.92004 155.9 8.04338 156.14 8.29004C156.386 8.53671 156.51 8.83671 156.51 9.19004C156.51 9.55671 156.386 9.86671 156.14 10.12C155.9 10.3667 155.58 10.49 155.18 10.49C154.786 10.49 154.466 10.3667 154.22 10.12C153.98 9.86671 153.86 9.55671 153.86 9.19004C153.86 8.83671 153.98 8.53671 154.22 8.29004C154.466 8.04338 154.786 7.92004 155.18 7.92004Z"
        fill="#001A33" />
    <path
        d="M167.192 12.71C168.199 12.71 169.042 12.9367 169.722 13.39C170.409 13.8434 170.925 14.4834 171.272 15.31C171.625 16.13 171.802 17.1 171.802 18.22C171.802 19.3067 171.622 20.2667 171.262 21.1C170.909 21.9267 170.389 22.5767 169.702 23.05C169.015 23.5167 168.172 23.75 167.172 23.75C166.172 23.75 165.325 23.5234 164.632 23.07C163.945 22.6167 163.425 21.9767 163.072 21.15C162.719 20.3234 162.542 19.3534 162.542 18.24C162.542 17.1467 162.719 16.1867 163.072 15.36C163.432 14.5267 163.959 13.8767 164.652 13.41C165.345 12.9434 166.192 12.71 167.192 12.71ZM167.192 14.24C166.325 14.24 165.672 14.5667 165.232 15.22C164.792 15.8667 164.572 16.8734 164.572 18.24C164.572 19.5934 164.789 20.5967 165.222 21.25C165.655 21.8967 166.305 22.22 167.172 22.22C168.039 22.22 168.689 21.8967 169.122 21.25C169.555 20.5967 169.772 19.5867 169.772 18.22C169.772 16.86 169.555 15.8567 169.122 15.21C168.695 14.5634 168.052 14.24 167.192 14.24Z"
        fill="#001A33" />
    <path
        d="M175.074 23.5V12.96H176.724L176.864 14.38C177.297 13.84 177.824 13.4267 178.444 13.14C179.071 12.8534 179.694 12.71 180.314 12.71C181.327 12.71 182.074 12.9867 182.554 13.54C183.034 14.0867 183.274 14.85 183.274 15.83V23.5H181.354V17.01C181.354 16.3434 181.314 15.8034 181.234 15.39C181.161 14.97 181.004 14.6667 180.764 14.48C180.524 14.2934 180.161 14.2 179.674 14.2C179.294 14.2 178.934 14.2834 178.594 14.45C178.254 14.6167 177.947 14.8267 177.674 15.08C177.407 15.3334 177.181 15.5967 176.994 15.87V23.5H175.074Z"
        fill="#001A33" />
    <path fill-rule="evenodd" clip-rule="evenodd"
        d="M14.9328 0.422527C15.3197 0.194984 15.7989 0.192349 16.1883 0.415625L30.8718 8.83538C31.2604 9.05818 31.5 9.47185 31.5 9.91975V23.6975C31.5 24.1368 31.2694 24.5438 30.8927 24.7696L16.2092 33.5721C15.8167 33.8074 15.3272 33.8094 14.9328 33.5775L0.616319 25.1577C0.234468 24.9331 0 24.5232 0 24.0802V10.6852H0.261747C0.0947001 10.4695 0 10.2013 0 9.91975C0 9.47676 0.234468 9.06685 0.616319 8.84228L14.9328 0.422527ZM2.5 12.1051V23.3652L14.3165 30.3147V19.0545L2.5 12.1051ZM16.8165 19.0637V30.2933L29 22.9895V12.0774L16.8165 19.0637ZM27.7371 9.91975L15.5744 16.894L3.71575 9.91975L15.5744 2.94548L27.7371 9.91975Z"
        fill="#001A33" />
</svg>