<svg width="37" height="36" viewBox="0 0 37 36" fill="none" xmlns="http://www.w3.org/2000/svg">
<path d="M18.2739 15.7806C17.6589 15.7806 17.1489 15.2706 17.1489 14.6556V9.66064C17.1489 9.04564 17.6589 8.53564 18.2739 8.53564C18.8889 8.53564 19.3989 9.04564 19.3989 9.66064V14.6556C19.3989 15.2856 18.8889 15.7806 18.2739 15.7806Z" fill="#001A33"/>
<path d="M18.304 30.525C14.434 30.525 10.579 29.91 6.90397 28.68C5.53897 28.23 4.50397 27.255 4.05397 26.025C3.60397 24.795 3.75397 23.385 4.48897 22.155L6.39397 18.975C6.81397 18.27 7.18897 16.95 7.18897 16.125V12.975C7.18897 6.83998 12.169 1.85999 18.304 1.85999C24.439 1.85999 29.419 6.83998 29.419 12.975V16.125C29.419 16.935 29.794 18.27 30.214 18.975L32.119 22.155C32.824 23.325 32.944 24.72 32.479 25.995C32.014 27.27 30.994 28.245 29.704 28.68C26.029 29.925 22.174 30.525 18.304 30.525ZM18.304 4.12499C13.414 4.12499 9.43897 8.09999 9.43897 12.99V16.14C9.43897 17.355 8.95897 19.11 8.32897 20.145L6.42397 23.34C6.03397 23.985 5.94397 24.675 6.16897 25.275C6.39397 25.875 6.90397 26.325 7.62397 26.565C14.524 28.86 22.114 28.86 29.014 26.565C29.659 26.355 30.154 25.875 30.379 25.245C30.619 24.615 30.544 23.925 30.199 23.34L28.294 20.16C27.664 19.125 27.184 17.37 27.184 16.155V13.005C27.169 8.09999 23.194 4.12499 18.304 4.12499Z" fill="#001A33"/>
<path d="M18.2738 34.3505C16.6688 34.3505 15.0938 33.6905 13.9538 32.5505C12.8138 31.4105 12.1538 29.8355 12.1538 28.2305H14.4038C14.4038 29.2505 14.8238 30.2405 15.5438 30.9605C16.2638 31.6805 17.2538 32.1005 18.2738 32.1005C20.4038 32.1005 22.1438 30.3605 22.1438 28.2305H24.3938C24.3938 31.6055 21.6488 34.3505 18.2738 34.3505Z" fill="#001A33"/>
</svg>
