<svg width="25" height="24" viewBox="0 0 25 24" fill="none" xmlns="http://www.w3.org/2000/svg">
<path d="M11.2739 20.75C5.89393 20.75 1.52393 16.38 1.52393 11C1.52393 5.62 5.89393 1.25 11.2739 1.25C16.6539 1.25 21.0239 5.62 21.0239 11C21.0239 16.38 16.6539 20.75 11.2739 20.75ZM11.2739 2.75C6.72393 2.75 3.02393 6.45 3.02393 11C3.02393 15.55 6.72393 19.25 11.2739 19.25C15.8239 19.25 19.5239 15.55 19.5239 11C19.5239 6.45 15.8239 2.75 11.2739 2.75Z" fill="black" fill-opacity="0.88"/>
<path d="M20.434 22.79C20.354 22.79 20.274 22.78 20.204 22.77C19.734 22.71 18.884 22.39 18.404 20.96C18.154 20.21 18.244 19.46 18.654 18.89C19.064 18.32 19.754 18 20.544 18C21.564 18 22.364 18.39 22.724 19.08C23.084 19.77 22.984 20.65 22.414 21.5C21.704 22.57 20.934 22.79 20.434 22.79ZM19.834 20.49C20.004 21.01 20.244 21.27 20.404 21.29C20.564 21.31 20.864 21.12 21.174 20.67C21.464 20.24 21.484 19.93 21.414 19.79C21.344 19.65 21.064 19.5 20.544 19.5C20.234 19.5 20.004 19.6 19.874 19.77C19.754 19.94 19.734 20.2 19.834 20.49Z" fill="black" fill-opacity="0.88"/>
</svg>
